<svg width="152" height="135" viewBox="0 0 152 135" fill="none" xmlns="http://www.w3.org/2000/svg">
    <g id="undraw_note_list_re_r4u9 1" clip-path="url(#clip0_0_419)">
        <path id="Vector"
            d="M130.628 111.546C128.064 119.054 124.765 126.546 120.54 133.677C120.446 133.837 120.351 133.995 120.256 134.155L109.795 130.847C109.855 130.696 109.921 130.526 109.992 130.341C114.211 119.435 139.667 52.9874 138.524 39.8862C138.647 40.9586 142.629 76.4482 130.628 111.546Z"
            fill="#E6E6E6" />
        <path id="Vector_2"
            d="M122.558 134.315C122.416 134.46 122.27 134.604 122.123 134.745L114.276 132.264C114.382 132.136 114.505 131.984 114.647 131.814C116.971 128.977 123.881 120.483 130.628 111.546C137.879 101.942 144.944 91.8279 145.934 87.6719C145.735 88.617 139.543 117.386 122.558 134.315Z"
            fill="#E6E6E6" />
        <path id="Vector_3"
            d="M126.481 23.6761C126.478 23.6761 126.475 23.6769 126.472 23.677V6.86353C126.472 5.04321 125.749 3.29744 124.461 2.01028C123.173 0.723119 121.426 0 119.605 0H66.94C65.1187 0 63.3721 0.723119 62.0843 2.01028C60.7965 3.29744 60.073 5.04321 60.073 6.86353V15.483C59.9276 15.4861 59.7892 15.546 59.6875 15.6498C59.5857 15.7536 59.5286 15.8932 59.5285 16.0385V20.3078C59.5286 20.4532 59.5857 20.5927 59.6874 20.6965C59.7892 20.8004 59.9276 20.8602 60.073 20.8633V25.3358H60.0451C59.972 25.3358 59.8995 25.3502 59.8319 25.3782C59.7644 25.4061 59.703 25.4471 59.6512 25.4988C59.5995 25.5505 59.5585 25.6119 59.5305 25.6795C59.5025 25.747 59.4881 25.8194 59.4881 25.8925V34.1483C59.4881 34.2214 59.5025 34.2938 59.5305 34.3614C59.5585 34.4289 59.5995 34.4903 59.6512 34.542C59.703 34.5937 59.7644 34.6347 59.8319 34.6627C59.8995 34.6907 59.972 34.7051 60.0451 34.7051H60.073V37.984H60.0643C59.9912 37.984 59.9188 37.9984 59.8512 38.0264C59.7836 38.0544 59.7222 38.0954 59.6705 38.1471C59.6188 38.1988 59.5777 38.2601 59.5497 38.3277C59.5217 38.3952 59.5073 38.4676 59.5073 38.5407V46.8773C59.5073 46.9504 59.5217 47.0228 59.5497 47.0904C59.5777 47.1579 59.6188 47.2193 59.6705 47.271C59.7222 47.3227 59.7836 47.3637 59.8512 47.3917C59.9188 47.4196 59.9912 47.434 60.0643 47.434H60.073V128.017C60.073 129.837 60.7965 131.583 62.0843 132.87C63.3721 134.157 65.1187 134.88 66.94 134.88H119.605C121.426 134.88 123.173 134.157 124.461 132.87C125.749 131.583 126.472 129.837 126.472 128.017V40.0254C126.475 40.0254 126.478 40.0263 126.481 40.0263C126.611 40.0263 126.74 40.0006 126.86 39.9508C126.981 39.901 127.09 39.828 127.182 39.7359C127.274 39.6439 127.347 39.5346 127.397 39.4143C127.447 39.2941 127.473 39.1651 127.473 39.035V24.6675C127.473 24.4046 127.368 24.1524 127.182 23.9665C126.996 23.7805 126.744 23.6761 126.481 23.6761Z"
            fill="#3F3D56" />
        <path id="Vector_4"
            d="M122.372 8.7847V126.094C122.371 127.491 121.815 128.832 120.827 129.82C119.838 130.808 118.496 131.363 117.098 131.363H69.447C68.0486 131.363 66.7075 130.808 65.7185 129.82C64.7295 128.832 64.1737 127.491 64.1732 126.094V8.7847C64.1732 7.38669 64.7288 6.04593 65.7178 5.05739C66.7069 4.06885 68.0483 3.51349 69.447 3.51349H76.5775V4.4385C76.578 5.5895 77.0357 6.69321 77.85 7.50708C78.6643 8.32096 79.7685 8.77842 80.9201 8.77893H105.163C106.313 8.77639 107.415 8.31797 108.228 7.50425C109.04 6.69054 109.496 5.58799 109.496 4.4385V3.5231H117.098C118.495 3.5231 119.835 4.07714 120.824 5.06361C121.813 6.05007 122.369 7.38836 122.372 8.7847Z"
            fill="white" />
        <path id="Vector_5"
            d="M45.1019 65.8241C44.8201 65.7151 44.5178 65.6691 44.2163 65.6894C43.9148 65.7098 43.6215 65.796 43.3569 65.9419C43.0923 66.0878 42.863 66.2899 42.685 66.534C42.5071 66.7781 42.3848 67.0582 42.3269 67.3546L25.3463 76.5832L28.3319 79.9417L44.1014 69.8264C44.6061 69.8907 45.1168 69.7676 45.5368 69.4807C45.9568 69.1937 46.2569 68.7627 46.3802 68.2694C46.5035 67.7761 46.4415 67.2547 46.2059 66.804C45.9703 66.3533 45.5775 66.0047 45.1019 65.8241Z"
            fill="#FFB8B8" />
        <path id="Vector_6"
            d="M40.7712 132.223L42.8871 130.855L38.6151 122.047L35.4922 124.065L40.7712 132.223Z"
            fill="#FFB8B8" />
        <path id="Vector_7"
            d="M48.2386 130.181L41.5886 134.48L39.9267 131.912L44.1035 129.211C44.7594 128.787 45.5571 128.641 46.3209 128.805C47.0847 128.969 47.7522 129.429 48.1765 130.085L48.2386 130.181Z"
            fill="#2F2E41" />
        <path id="Vector_8" d="M17.03 132.541H19.5499L20.7492 122.826H17.03V132.541Z"
            fill="#FFB8B8" />
        <path id="Vector_9"
            d="M24.4099 134.88H16.49V131.821H21.4644C21.8512 131.821 22.2342 131.898 22.5916 132.045C22.949 132.193 23.2737 132.41 23.5472 132.684C23.8207 132.957 24.0377 133.282 24.1857 133.639C24.3337 133.996 24.4099 134.379 24.4099 134.765V134.88Z"
            fill="#2F2E41" />
        <path id="Vector_10"
            d="M74.8456 19.0372H69.6506C69.5231 19.0372 69.4007 18.9865 69.3105 18.8964C69.2203 18.8062 69.1696 18.6839 69.1696 18.5564C69.1696 18.4289 69.2203 18.3066 69.3105 18.2164C69.4007 18.1263 69.5231 18.0756 69.6506 18.0756H74.8456C74.9731 18.0756 75.0955 18.1263 75.1857 18.2164C75.2759 18.3066 75.3266 18.4289 75.3266 18.5564C75.3266 18.6839 75.2759 18.8062 75.1857 18.8964C75.0955 18.9865 74.9731 19.0372 74.8456 19.0372Z"
            fill="#3F3D56" />
        <path id="Vector_11"
            d="M74.8456 20.3834H69.6506C69.5231 20.3834 69.4007 20.3327 69.3105 20.2425C69.2203 20.1524 69.1696 20.0301 69.1696 19.9026C69.1696 19.7751 69.2203 19.6528 69.3105 19.5626C69.4007 19.4725 69.5231 19.4218 69.6506 19.4218H74.8456C74.9731 19.4218 75.0955 19.4725 75.1857 19.5626C75.2759 19.6528 75.3266 19.7751 75.3266 19.9026C75.3266 20.0301 75.2759 20.1524 75.1857 20.2425C75.0955 20.3327 74.9731 20.3834 74.8456 20.3834Z"
            fill="#3F3D56" />
        <path id="Vector_12"
            d="M74.8456 21.7295H69.6506C69.5231 21.7295 69.4007 21.6788 69.3105 21.5887C69.2203 21.4985 69.1696 21.3762 69.1696 21.2487C69.1696 21.1212 69.2203 20.9989 69.3105 20.9088C69.4007 20.8186 69.5231 20.7679 69.6506 20.7679H74.8456C74.9731 20.7679 75.0955 20.8186 75.1857 20.9088C75.2759 20.9989 75.3266 21.1212 75.3266 21.2487C75.3266 21.3762 75.2759 21.4985 75.1857 21.5887C75.0955 21.6788 74.9731 21.7295 74.8456 21.7295Z"
            fill="#3F3D56" />
        <path id="Vector_13"
            d="M115.114 20.3929H114.939L114.872 20.3372C115.093 20.0737 115.214 19.7407 115.214 19.3968C115.213 19.1138 115.127 18.8376 114.969 18.6032C114.81 18.3687 114.586 18.1866 114.324 18.0797C114.061 17.9728 113.773 17.946 113.496 18.0027C113.219 18.0594 112.964 18.197 112.765 18.3982C112.566 18.5994 112.431 18.8551 112.377 19.1329C112.324 19.4107 112.354 19.6983 112.463 19.9591C112.573 20.22 112.758 20.4424 112.994 20.5984C113.23 20.7543 113.507 20.8368 113.791 20.8352C114.134 20.8328 114.465 20.7119 114.73 20.4929L114.795 20.5487V20.7256L115.899 21.8314L116.23 21.5006L115.114 20.3929ZM113.791 20.3929C113.593 20.3937 113.401 20.336 113.236 20.2272C113.072 20.1184 112.944 19.9633 112.867 19.7815C112.791 19.5998 112.771 19.3996 112.808 19.2062C112.846 19.0128 112.94 18.835 113.079 18.6951C113.218 18.5553 113.395 18.4597 113.589 18.4205C113.782 18.3813 113.982 18.4003 114.165 18.475C114.347 18.5497 114.503 18.6767 114.613 18.8401C114.723 19.0035 114.783 19.1959 114.783 19.3929L114.783 19.3968C114.784 19.5268 114.759 19.6558 114.71 19.7762C114.661 19.8967 114.589 20.0063 114.497 20.0988C114.406 20.1913 114.297 20.2649 114.177 20.3153C114.057 20.3658 113.928 20.3922 113.798 20.3929C113.796 20.3929 113.793 20.3929 113.791 20.3929Z"
            fill="#3F3D56" />
        <path id="Vector_14"
            d="M85.4289 36.7297H76.0962C75.5349 36.7297 74.9965 36.5068 74.5996 36.1101C74.2027 35.7134 73.9797 35.1753 73.9797 34.6142C73.9797 34.0532 74.2027 33.5151 74.5996 33.1184C74.9965 32.7217 75.5349 32.4988 76.0962 32.4988H85.4289C85.9902 32.4988 86.5285 32.7217 86.9254 33.1184C87.3224 33.5151 87.5453 34.0532 87.5453 34.6142C87.5453 35.1753 87.3224 35.7134 86.9254 36.1101C86.5285 36.5068 85.9902 36.7297 85.4289 36.7297Z"
            fill="#FF7011" />
        <path id="Vector_15"
            d="M114 41.3451H75.1342C74.828 41.3451 74.5344 41.2236 74.3179 41.0072C74.1014 40.7908 73.9797 40.4973 73.9797 40.1913C73.9797 39.8853 74.1014 39.5918 74.3179 39.3754C74.5344 39.159 74.828 39.0374 75.1342 39.0374H114C114.306 39.0374 114.6 39.159 114.816 39.3754C115.033 39.5918 115.154 39.8853 115.154 40.1913C115.154 40.4973 115.033 40.7908 114.816 41.0072C114.6 41.2236 114.306 41.3451 114 41.3451Z"
            fill="#E6E6E6" />
        <path id="Vector_16"
            d="M89.4107 45.9606H75.1342C74.828 45.9606 74.5344 45.839 74.3179 45.6226C74.1014 45.4062 73.9797 45.1127 73.9797 44.8067C73.9797 44.5007 74.1014 44.2072 74.3179 43.9908C74.5344 43.7744 74.828 43.6528 75.1342 43.6528H89.4107C89.7168 43.6528 90.0105 43.7744 90.227 43.9908C90.4435 44.2072 90.5651 44.5007 90.5651 44.8067C90.5651 45.1127 90.4435 45.4062 90.227 45.6226C90.0105 45.839 89.7168 45.9606 89.4107 45.9606Z"
            fill="#E6E6E6" />
        <path id="Vector_17"
            d="M85.4289 87.8841H76.0962C75.5349 87.8841 74.9965 87.6612 74.5996 87.2645C74.2027 86.8678 73.9797 86.3297 73.9797 85.7687C73.9797 85.2076 74.2027 84.6696 74.5996 84.2728C74.9965 83.8761 75.5349 83.6533 76.0962 83.6533H85.4289C85.9902 83.6533 86.5285 83.8761 86.9254 84.2728C87.3224 84.6696 87.5453 85.2076 87.5453 85.7687C87.5453 86.3297 87.3224 86.8678 86.9254 87.2645C86.5285 87.6612 85.9902 87.8841 85.4289 87.8841Z"
            fill="#FF7011" />
        <path id="Vector_18"
            d="M114 92.4995H75.1342C74.828 92.4995 74.5344 92.3779 74.3179 92.1615C74.1014 91.9451 73.9797 91.6517 73.9797 91.3456C73.9797 91.0396 74.1014 90.7461 74.3179 90.5297C74.5344 90.3133 74.828 90.1918 75.1342 90.1918H114C114.306 90.1918 114.6 90.3133 114.816 90.5297C115.033 90.7461 115.154 91.0396 115.154 91.3456C115.154 91.6517 115.033 91.9451 114.816 92.1615C114.6 92.3779 114.306 92.4995 114 92.4995Z"
            fill="#E6E6E6" />
        <path id="Vector_19"
            d="M89.4107 97.115H75.1342C74.828 97.115 74.5344 96.9934 74.3179 96.777C74.1014 96.5606 73.9797 96.2671 73.9797 95.9611C73.9797 95.6551 74.1014 95.3616 74.3179 95.1452C74.5344 94.9288 74.828 94.8073 75.1342 94.8073H89.4107C89.7168 94.8073 90.0105 94.9288 90.227 95.1452C90.4435 95.3616 90.5651 95.6551 90.5651 95.9611C90.5651 96.2671 90.4435 96.5606 90.227 96.777C90.0105 96.9934 89.7168 97.115 89.4107 97.115Z"
            fill="#E6E6E6" />
        <path id="Vector_20"
            d="M85.4289 111.538H76.0962C75.5349 111.538 74.9965 111.315 74.5996 110.919C74.2027 110.522 73.9797 109.984 73.9797 109.423C73.9797 108.862 74.2027 108.324 74.5996 107.927C74.9965 107.53 75.5349 107.307 76.0962 107.307H85.4289C85.9902 107.307 86.5285 107.53 86.9254 107.927C87.3224 108.324 87.5453 108.862 87.5453 109.423C87.5453 109.984 87.3224 110.522 86.9254 110.919C86.5285 111.315 85.9902 111.538 85.4289 111.538Z"
            fill="#FF7011" />
        <path id="Vector_21"
            d="M114 116.154H75.1342C74.828 116.154 74.5344 116.032 74.3179 115.816C74.1014 115.599 73.9797 115.306 73.9797 115C73.9797 114.694 74.1014 114.4 74.3179 114.184C74.5344 113.968 74.828 113.846 75.1342 113.846H114C114.306 113.846 114.6 113.968 114.816 114.184C115.033 114.4 115.154 114.694 115.154 115C115.154 115.306 115.033 115.599 114.816 115.816C114.6 116.032 114.306 116.154 114 116.154Z"
            fill="#E6E6E6" />
        <path id="Vector_22"
            d="M89.4107 120.769H75.1342C74.828 120.769 74.5344 120.648 74.3179 120.431C74.1014 120.215 73.9797 119.921 73.9797 119.615C73.9797 119.309 74.1014 119.016 74.3179 118.799C74.5344 118.583 74.828 118.461 75.1342 118.461H89.4107C89.7168 118.461 90.0105 118.583 90.227 118.799C90.4435 119.016 90.5651 119.309 90.5651 119.615C90.5651 119.921 90.4435 120.215 90.227 120.431C90.0105 120.648 89.7168 120.769 89.4107 120.769Z"
            fill="#E6E6E6" />
        <path id="Vector_23"
            d="M119.484 75.8648H45.2152C44.7816 75.8643 44.3659 75.6919 44.0593 75.3854C43.7527 75.079 43.5802 74.6635 43.5797 74.2301V54.0376C43.5802 53.6042 43.7527 53.1887 44.0593 52.8823C44.3659 52.5758 44.7816 52.4034 45.2152 52.403H119.484C119.917 52.4035 120.333 52.5758 120.639 52.8823C120.946 53.1887 121.118 53.6042 121.119 54.0376V74.2301C121.118 74.6635 120.946 75.079 120.639 75.3854C120.333 75.6919 119.917 75.8642 119.484 75.8648Z"
            fill="#FF7011" />
        <path id="Vector_24"
            d="M18.5154 99.8881C19.2254 104.867 15.4658 126.925 15.8833 126.923L21.2822 126.894C21.4746 126.525 23.9528 114.623 24.7301 112.713C25.8153 110.063 26.9101 107.38 27.3372 104.55C27.7393 101.892 27.5412 99.1842 27.2795 96.5092C27.2917 96.4296 27.2847 96.3483 27.2592 96.272C27.2338 96.1956 27.1905 96.1264 27.133 96.07C27.0755 96.0137 27.0054 95.9718 26.9285 95.9478C26.8516 95.9239 26.7701 95.9186 26.6907 95.9323L19.4467 95.5592C17.9536 95.4823 17.5996 95.1554 17.8266 96.6208C17.9844 97.715 18.3577 98.7804 18.5154 99.8881Z"
            fill="#2F2E41" />
        <path id="Vector_25"
            d="M19.9392 87.7822C18.4673 89.8976 16.9243 92.3322 17.413 94.8649C17.7843 96.788 19.2504 98.2784 20.6338 99.6727C26.1635 105.223 37.0671 129.711 37.0671 129.711C42.3291 126.346 36.9418 129.808 42.2813 126.25C41.808 126.213 31.0545 87.5764 30.1636 87.5245C26.5599 87.286 23.4506 86.9341 19.9392 87.7822Z"
            fill="#2F2E41" />
        <path id="Vector_26"
            d="M25.7611 67.6475C25.0135 66.9811 19.7596 64.926 19.7596 64.926C19.663 64.9132 19.5649 64.9162 19.4693 64.9347C19.1703 65.0102 19.0339 65.3815 19.0977 65.6818C19.1616 65.9821 18.6376 70.9174 18.5027 73.1616C18.2661 77.0784 20.5738 85.9509 20.5535 86.2221C20.4744 87.1896 20.0506 88.0967 19.359 88.7782C19.5387 89.0012 30.9543 89.4485 31.7308 89.7125C31.8875 89.5137 30.8469 75.4406 30.799 74.6456C30.7191 73.4387 26.7481 68.5615 25.7611 67.6475Z"
            fill="#E6E6E6" />
        <path id="Vector_27"
            d="M17.6191 98.1839C17.8896 98.0494 18.1273 97.8572 18.3155 97.6208C18.5036 97.3845 18.6377 97.1098 18.7082 96.8161C18.7786 96.5224 18.7838 96.2169 18.7233 95.921C18.6629 95.625 18.5382 95.346 18.3582 95.1034L23.1747 68.4608L18.6801 68.4016L15.3353 94.7477C14.9477 95.077 14.6944 95.537 14.6234 96.0405C14.5524 96.5441 14.6687 97.0561 14.9502 97.4797C15.2317 97.9032 15.6588 98.2089 16.1507 98.3387C16.6426 98.4685 17.1651 98.4134 17.6191 98.1839Z"
            fill="#FFB8B8" />
        <path id="Vector_28"
            d="M17.5804 70.4377C17.3929 70.4514 17.2062 70.4027 17.0493 70.2993C16.7819 70.0704 18.9638 66.5685 19.3947 66.5165C20.7974 66.355 22.2404 66.3012 23.6007 66.68C24.961 67.0589 26.2405 67.9204 26.8485 69.1954C27.1025 69.7262 25.2612 72.3974 24.4242 72.0051C23.4218 71.5358 18.9003 70.4704 17.5804 70.4377Z"
            fill="#E6E6E6" />
        <path id="Vector_29"
            d="M22.531 64.639C25.3192 64.639 27.5795 62.3798 27.5795 59.593C27.5795 56.8062 25.3192 54.547 22.531 54.547C19.7428 54.547 17.4825 56.8062 17.4825 59.593C17.4825 62.3798 19.7428 64.639 22.531 64.639Z"
            fill="#FFB8B8" />
        <path id="Vector_30"
            d="M17.5723 67.9361C18.2739 68.0094 18.9826 67.9058 19.6338 67.6346C20.2849 67.3635 20.8576 66.9334 21.2995 66.3839C21.7413 65.8343 22.0383 65.1828 22.1631 64.4889C22.288 63.795 22.2368 63.0809 22.0141 62.4119C21.8132 61.8081 21.4774 61.2548 21.2934 60.6457C21.1094 60.0366 21.1044 59.3164 21.5125 58.8281C22.3109 57.8727 23.8498 58.4736 25.0807 58.2837C26.3922 58.0813 27.3984 56.8236 27.5034 55.5014C27.6083 54.1791 26.9188 52.8706 25.8923 52.0298C24.8658 51.1891 23.5419 50.7752 22.2212 50.6455C20.525 50.4789 18.8145 50.7516 17.2544 51.4373C15.6942 52.1231 14.337 53.1987 13.3134 54.5607C12.2898 55.9228 11.6342 57.5253 11.4099 59.2139C11.1855 60.9026 11.3999 62.6205 12.0325 64.2024C12.5843 65.5823 13.4855 66.8675 14.7657 67.6233C16.0459 68.379 17.7367 68.5242 19.0126 67.7613"
            fill="#2F2E41" />
        <path id="Vector_31"
            d="M71.628 61.6338H58.7265C57.9071 61.6338 57.2405 60.6848 57.2405 59.5184C57.2405 58.3519 57.9071 57.403 58.7265 57.403H71.628C72.4473 57.403 73.1139 58.3519 73.1139 59.5184C73.1139 60.6848 72.4473 61.6338 71.628 61.6338Z"
            fill="white" />
        <path id="Vector_32"
            d="M106.304 66.2492H58.3949C58.0888 66.2492 57.7951 66.1277 57.5786 65.9113C57.3621 65.6949 57.2405 65.4014 57.2405 65.0954C57.2405 64.7894 57.3621 64.4959 57.5786 64.2795C57.7951 64.0631 58.0888 63.9415 58.3949 63.9415H106.304C106.61 63.9415 106.904 64.0631 107.12 64.2795C107.337 64.4959 107.458 64.7894 107.458 65.0954C107.458 65.4014 107.337 65.6949 107.12 65.9113C106.904 66.1277 106.61 66.2492 106.304 66.2492Z"
            fill="#E6E6E6" />
        <path id="Vector_33"
            d="M81.7145 70.8647H58.3949C58.0888 70.8647 57.7951 70.7431 57.5786 70.5267C57.3621 70.3103 57.2405 70.0168 57.2405 69.7108C57.2405 69.4048 57.3621 69.1113 57.5786 68.8949C57.7951 68.6785 58.0888 68.5569 58.3949 68.5569H81.7145C82.0206 68.5569 82.3143 68.6785 82.5308 68.8949C82.7473 69.1113 82.8689 69.4048 82.8689 69.7108C82.8689 70.0168 82.7473 70.3103 82.5308 70.5267C82.3143 70.7431 82.0206 70.8647 81.7145 70.8647Z"
            fill="#E6E6E6" />
        <path id="Vector_34" d="M152 134.615H0V135H152V134.615Z" fill="#3F3D56" />
    </g>
    <defs>
        <clipPath id="clip0_0_419">
            <rect width="152" height="135" fill="white" />
        </clipPath>
    </defs>
</svg>
